<?xml version="1.0" encoding="UTF-8" standalone="no"?>
<!DOCTYPE svg PUBLIC "-//W3C//DTD SVG 1.1//EN" "http://www.w3.org/Graphics/SVG/1.1/DTD/svg11.dtd">
<svg width="100%" height="100%" viewBox="0 0 1555 768" version="1.1" xmlns="http://www.w3.org/2000/svg" xmlns:xlink="http://www.w3.org/1999/xlink" xml:space="preserve" style="fill-rule:evenodd;clip-rule:evenodd;stroke-linejoin:round;stroke-miterlimit:1.41421;">
    <g transform="matrix(1,0,0,1,-1508.71,-177.143)">
        <g id="Artboard1" transform="matrix(1.66597,0,0,0.651333,-4461.11,-265.103)">
            <rect x="3583.39" y="678.986" width="932.964" height="1179.06" style="fill:none;"/>
            <g transform="matrix(2.50105,0,0,6.39714,3383.21,-1278.74)">
                <path d="M202.53,377.154C203.468,375.626 204.438,374.596 205.433,374.063C206.428,373.533 207.259,373.456 207.929,373.83C208.596,374.207 208.984,374.941 209.088,376.033C209.19,377.128 208.821,378.487 207.978,380.111C206.381,383.074 204.049,386.161 200.983,389.371C197.914,392.585 194.678,395.513 191.272,398.156C187.867,400.801 184.48,402.99 181.116,404.729C177.751,406.469 174.974,407.347 172.786,407.364C170.501,407.382 168.429,407.065 166.568,406.413C164.708,405.763 163.223,404.703 162.119,403.235C161.012,401.77 160.402,399.918 160.291,397.682C160.178,395.447 160.824,392.752 162.227,389.601C163.351,387.215 164.804,384.514 166.589,381.502C168.373,378.49 169.921,375.695 171.235,373.115C172.547,370.535 173.316,368.388 173.541,366.673C173.764,364.958 172.879,364.157 170.881,364.267C169.263,364.375 167.275,365.723 164.917,368.311C162.557,370.898 160.108,374.106 157.568,377.932C155.029,381.759 152.609,385.822 150.311,390.122C148.011,394.422 146.115,398.34 144.621,401.872C143.685,403.974 140.22,405.047 134.224,405.093C132.797,405.104 131.817,404.732 131.29,403.974C130.759,403.218 130.608,402.172 130.837,400.837C131.063,399.503 131.528,397.883 132.226,395.973C132.925,394.063 133.789,392.012 134.82,389.813C135.943,387.428 137.396,384.727 139.183,381.715C140.966,378.703 142.515,375.907 143.828,373.327C145.14,370.748 145.909,368.6 146.134,366.885C146.357,365.17 145.472,364.369 143.475,364.479C141.855,364.588 139.774,365.936 137.224,368.525C134.675,371.113 132.01,374.324 129.233,378.152C126.455,381.98 123.821,386.045 121.334,390.347C118.844,394.648 116.852,398.567 115.357,402.099C114.518,404.2 113.791,405.68 113.18,406.541C112.566,407.401 111.74,407.837 110.691,407.845L107.123,407.873C104.839,407.891 103.266,407.523 102.403,406.768C101.541,406.014 101.436,404.54 102.083,402.344C102.829,400.15 103.527,398.1 104.177,396.189C104.829,394.281 105.67,392.229 106.699,390.031C108.008,386.881 109.2,384.041 110.273,381.511C111.349,378.982 112.377,376.641 113.359,374.491C114.342,372.342 115.301,370.336 116.239,368.474C117.175,366.609 118.066,364.771 118.909,362.957C119.751,361.143 120.619,359.709 121.517,358.654C122.412,357.6 123.38,356.76 124.423,356.133C125.464,355.508 126.579,355.07 127.768,354.822C128.955,354.577 130.356,354.353 131.974,354.147C134.445,353.939 135.759,354.453 135.911,355.688C136.064,356.924 135.438,359.069 134.034,362.125C136.773,359.535 139.565,357.42 142.408,355.779C145.25,354.141 148.145,353.309 151.096,353.285C158.708,353.227 162.157,356.104 161.441,361.913C164.181,359.322 166.972,357.207 169.815,355.567C172.657,353.928 175.553,353.096 178.503,353.073C182.119,353.045 184.719,353.881 186.303,355.582C187.886,357.281 188.689,359.537 188.711,362.344C188.732,365.152 188.043,368.298 186.643,371.781C185.242,375.268 183.414,378.779 181.157,382.316C180.215,383.752 179.346,385.211 178.55,386.691C177.751,388.175 177.191,389.533 176.868,390.772C176.543,392.013 176.504,393.012 176.749,393.771C176.991,394.531 177.732,394.906 178.971,394.896C180.777,394.883 182.749,394.391 184.883,393.422C187.017,392.455 189.17,391.154 191.348,389.518C193.524,387.885 195.579,386.014 197.514,383.903C199.448,381.797 201.121,379.546 202.53,377.154Z" style="fill:rgb(108,199,185);fill-rule:nonzero;"/>
            </g>
            <g transform="matrix(2.50105,0,0,6.39714,3383.21,-1278.74)">
                <path d="M210.973,379.945C214.108,379.35 217.358,378.303 220.727,376.8C224.092,375.299 227,372.874 229.449,369.523C231.145,367.226 231.581,365.391 230.763,364.017C229.942,362.645 228.511,362.084 226.467,362.337C224.422,362.591 222.054,363.87 219.359,366.176C216.665,368.48 214.242,372.117 212.092,377.08L210.973,379.945ZM234.364,377.479C231.339,380.264 227.671,382.6 223.355,384.488C219.039,386.378 214.694,387.674 210.324,388.371C210.815,390.463 211.802,392.05 213.287,393.131C214.77,394.215 216.37,394.892 218.085,395.164C220.563,395.621 223.32,395.434 226.36,394.6C229.398,393.77 232.434,392.508 235.467,390.817C238.499,389.13 241.41,387.086 244.2,384.684C246.986,382.284 249.417,379.646 251.49,376.775C252.621,375.339 253.731,374.38 254.822,373.895C255.911,373.411 256.792,373.357 257.462,373.73C258.13,374.107 258.47,374.818 258.478,375.865C258.486,376.914 257.971,378.201 256.937,379.731C254.114,383.846 251.002,387.582 247.603,390.938C244.203,394.297 240.656,397.154 236.962,399.515C233.269,401.876 229.451,403.713 225.514,405.028C221.573,406.343 217.699,407.016 213.894,407.045C209.517,407.079 205.798,406.229 202.74,404.491C199.679,402.755 197.426,400.393 195.976,397.405C194.525,394.418 193.951,390.879 194.251,386.784C194.555,382.691 195.877,378.348 198.219,373.762C199.811,370.516 201.856,367.381 204.356,364.363C206.854,361.348 209.642,358.827 212.72,356.805C215.796,354.783 219.046,353.426 222.467,352.732C225.888,352.041 229.316,352.395 232.753,353.795C235.332,354.917 237.293,356.377 238.641,358.174C239.986,359.973 240.715,361.965 240.829,364.152C240.938,366.342 240.457,368.605 239.382,370.945C238.305,373.287 236.633,375.463 234.364,377.479Z" style="fill:rgb(108,199,185);fill-rule:nonzero;"/>
            </g>
            <g transform="matrix(2.50105,0,0,6.39714,3383.21,-1278.74)">
                <path d="M262.464,392.964C266.461,392.934 270.012,390.646 273.117,386.102C276.223,381.558 279.408,375.324 282.679,367.397L281.248,366.838C279.624,366.278 277.791,366.174 275.749,366.523C273.705,366.873 271.618,367.626 269.486,368.784C267.353,369.943 265.295,371.458 263.311,373.329C261.327,375.2 259.63,377.332 258.221,379.722C257.282,381.348 256.651,382.971 256.332,384.59C256.01,386.212 255.999,387.64 256.294,388.871C256.588,390.107 257.26,391.102 258.315,391.854C259.368,392.609 260.751,392.977 262.464,392.964ZM325.455,379.201C323.388,382.738 320.869,386.137 317.896,389.394C314.923,392.652 311.756,395.558 308.399,398.104C305.04,400.652 301.629,402.679 298.167,404.179C294.704,405.683 291.499,406.443 288.55,406.467C285.217,406.492 282.639,405.349 280.814,403.029C278.987,400.713 277.966,397.84 277.75,394.416C276.712,395.758 275.534,397.123 274.213,398.512C272.89,399.902 271.379,401.225 269.675,402.473C267.972,403.725 266.075,404.738 263.988,405.516C261.9,406.294 259.665,406.69 257.289,406.709C253.577,406.737 250.476,405.74 247.986,403.712C245.497,401.686 243.81,399.012 242.928,395.685C242.046,392.361 242.041,388.604 242.912,384.408C243.785,380.215 245.772,375.963 248.88,371.656C251.61,367.924 254.655,364.809 258.015,362.307C261.372,359.807 264.762,357.924 268.178,356.66C271.595,355.397 274.92,354.849 278.158,355.013C281.394,355.18 284.305,356.061 286.887,357.657C287.819,355.365 288.871,352.885 290.041,350.211C291.209,347.538 292.355,344.959 293.478,342.475C294.601,339.992 295.654,337.676 296.636,335.526C297.619,333.377 298.391,331.636 298.951,330.299C299.885,328.199 300.657,326.502 301.268,325.213C301.875,323.923 302.51,322.872 303.17,322.057C303.829,321.244 304.633,320.596 305.582,320.111C306.528,319.629 307.859,319.143 309.568,318.652C311.276,318.164 312.961,317.698 314.624,317.258C316.285,316.816 317.689,316.615 318.831,316.653C319.974,316.693 320.762,317.066 321.196,317.777C321.629,318.488 321.472,319.751 320.726,321.564C320.164,322.807 319.322,324.668 318.199,327.15C317.076,329.636 315.789,332.476 314.339,335.675C312.887,338.875 311.343,342.265 309.707,345.847C308.069,349.428 306.525,352.866 305.076,356.16C303.625,359.455 302.27,362.487 301.007,365.256C299.743,368.027 298.783,370.178 298.13,371.703C297.1,373.995 296.143,376.357 295.259,378.792C294.372,381.226 293.819,383.467 293.598,385.514C293.375,387.563 293.578,389.226 294.207,390.505C294.835,391.785 296.196,392.417 298.29,392.4C302.477,392.369 306.463,390.863 310.247,387.883C314.029,384.906 317.283,381.025 320.007,376.244C320.945,374.716 321.915,373.685 322.91,373.152C323.904,372.623 324.761,372.545 325.477,372.918C326.194,373.295 326.603,374.03 326.707,375.122C326.81,376.217 326.392,377.576 325.455,379.201Z" style="fill:rgb(108,199,185);fill-rule:nonzero;"/>
            </g>
            <g transform="matrix(2.50105,0,0,6.39714,3383.21,-1278.74)">
                <path d="M351.483,330.318C352.161,331.934 352.222,333.525 351.664,335.1C351.104,336.674 350.139,338.109 348.77,339.405C347.4,340.701 345.79,341.762 343.941,342.584C342.092,343.407 340.262,343.896 338.457,344.054C336.649,344.211 335.006,344.01 333.527,343.449C332.046,342.889 331.017,341.852 330.434,340.332C329.755,338.816 329.718,337.269 330.326,335.693C330.932,334.119 331.895,332.684 333.219,331.389C334.541,330.094 336.103,328.988 337.905,328.069C339.705,327.152 341.485,326.592 343.245,326.387C345.003,326.184 346.622,326.385 348.103,326.99C349.582,327.6 350.708,328.708 351.483,330.318ZM339.709,358.247C338.77,360.063 337.715,361.999 336.542,364.053C335.367,366.11 334.218,368.164 333.092,370.219C331.966,372.275 330.861,374.258 329.783,376.168C328.703,378.082 327.741,379.753 326.896,381.188C326.052,382.717 325.254,384.223 324.504,385.703C323.753,387.185 323.17,388.521 322.751,389.713C322.332,390.907 322.244,391.883 322.488,392.641C322.73,393.402 323.425,393.777 324.567,393.768C326.374,393.754 328.345,393.263 330.479,392.294C332.613,391.327 334.767,390.025 336.945,388.389C339.121,386.756 341.2,384.885 343.182,382.774C345.165,380.667 346.86,378.416 348.269,376.025C349.207,374.496 350.176,373.465 351.172,372.934C352.166,372.404 352.998,372.326 353.668,372.7C354.335,373.076 354.723,373.813 354.827,374.904C354.93,375.998 354.512,377.357 353.574,378.982C351.978,381.946 349.67,385.033 346.65,388.242C343.629,391.456 340.393,394.383 336.94,397.026C333.485,399.672 330.101,401.862 326.784,403.601C323.466,405.34 320.666,406.218 318.382,406.235C316.192,406.252 314.193,405.936 312.379,405.283C310.567,404.632 309.154,403.572 308.143,402.104C307.133,400.637 306.643,398.785 306.673,396.547C306.704,394.312 307.42,391.616 308.823,388.465C310.226,385.314 311.466,382.475 312.54,379.943C313.615,377.414 314.643,375.073 315.625,372.924C316.608,370.774 317.543,368.77 318.434,366.906C319.323,365.043 320.19,363.205 321.033,361.39C321.875,359.576 322.649,358.143 323.355,357.09C324.06,356.037 324.814,355.222 325.62,354.645C326.422,354.068 327.347,353.656 328.394,353.41C329.438,353.166 330.721,352.893 332.242,352.596C333.761,352.395 335.188,352.24 336.521,352.135C337.852,352.03 338.923,352.141 339.735,352.467C340.546,352.795 340.978,353.408 341.035,354.312C341.088,355.217 340.646,356.527 339.709,358.247Z" style="fill:rgb(108,199,185);fill-rule:nonzero;"/>
            </g>
            <g transform="matrix(2.50105,0,0,6.39714,3383.21,-1278.74)">
                <path d="M359.1,392.215C363.097,392.184 367.028,390.062 370.899,385.843C374.768,381.626 378.339,375.936 381.616,368.771C380.653,367.447 379.457,366.554 378.026,366.087C376.402,365.528 374.546,365.425 372.457,365.773C370.365,366.124 368.254,366.877 366.122,368.035C363.989,369.194 361.931,370.709 359.947,372.58C357.963,374.451 356.267,376.584 354.857,378.973C353.918,380.6 353.288,382.221 352.968,383.841C352.646,385.463 352.635,386.891 352.93,388.123C353.225,389.359 353.897,390.353 354.951,391.105C356.004,391.859 357.387,392.229 359.1,392.215ZM404.086,357.748C403.147,359.564 402.092,361.5 400.919,363.555C399.744,365.611 398.571,367.666 397.397,369.721C396.223,371.777 395.096,373.76 394.018,375.671C392.937,377.584 391.976,379.256 391.131,380.689C390.286,382.22 389.488,383.725 388.739,385.205C387.987,386.688 387.427,388.022 387.056,389.215C386.684,390.408 386.596,391.384 386.794,392.143C386.989,392.904 387.706,393.278 388.944,393.27C390.657,393.256 392.602,392.765 394.785,391.796C396.966,390.828 399.144,389.526 401.321,387.891C403.497,386.258 405.553,384.386 407.488,382.275C409.421,380.169 411.095,377.918 412.503,375.527C413.441,373.998 414.41,372.968 415.405,372.436C416.401,371.906 417.232,371.828 417.902,372.202C418.57,372.579 418.957,373.314 419.061,374.406C419.163,375.5 418.795,376.859 417.951,378.483C416.354,381.447 414.022,384.533 410.956,387.744C407.887,390.958 404.651,393.885 401.246,396.528C397.84,399.173 394.453,401.363 391.09,403.103C387.724,404.842 384.947,405.72 382.759,405.736C379.619,405.761 376.948,405.116 374.75,403.801C372.549,402.485 371.297,400.4 370.99,397.548C368.912,399.754 366.454,401.7 363.611,403.387C360.77,405.075 357.54,405.932 353.924,405.96C350.213,405.988 347.111,404.991 344.622,402.963C342.133,400.937 340.446,398.262 339.563,394.936C338.682,391.612 338.702,387.854 339.619,383.658C340.539,379.465 342.552,375.213 345.659,370.906C348.576,366.887 351.883,363.555 355.574,360.908C359.265,358.262 362.962,356.402 366.665,355.326C370.369,354.252 373.936,354.01 377.366,354.601C380.797,355.193 383.757,356.717 386.253,359.172C387.003,357.834 387.684,356.758 388.298,355.943C388.909,355.131 389.594,354.482 390.353,354C391.109,353.52 391.987,353.156 392.985,352.91C393.982,352.666 395.193,352.393 396.619,352.097C398.138,351.896 399.564,351.742 400.898,351.636C402.228,351.531 403.276,351.642 404.041,351.968C404.805,352.297 405.237,352.91 405.34,353.813C405.441,354.718 405.022,356.027 404.086,357.748Z" style="fill:rgb(108,199,185);fill-rule:nonzero;"/>
            </g>
            <g transform="matrix(2.50105,0,0,6.39714,3383.21,-1278.74)">
                <path d="M257.1,460.469L256.821,460.471L241.452,437.832L241.721,472.521L233.325,472.587L232.949,424.021L242.038,423.95L256.993,446.802L271.594,423.721L280.682,423.65L281.059,472.217L272.525,472.283L272.255,437.454L257.1,460.469Z" style="fill:rgb(64,43,86);fill-rule:nonzero;"/>
            </g>
            <g transform="matrix(2.50105,0,0,6.39714,3383.21,-1278.74)">
                <path d="M307.326,433.297L299.151,452.788L315.871,452.658L307.326,433.297ZM333.088,471.813L324.069,471.884L319.052,460.196L296.087,460.374L291.183,472.139L282.441,472.206L303.431,423.128L311.339,423.066L333.088,471.813Z" style="fill:rgb(64,43,86);fill-rule:nonzero;"/>
            </g>
            <g transform="matrix(2.50105,0,0,6.39714,3383.21,-1278.74)">
                <path d="M352.262,430.867L342.688,430.941L342.944,463.967L352.518,463.893C362.717,463.813 369.324,456.893 369.25,447.319C369.176,437.744 362.461,430.788 352.262,430.867ZM352.579,471.663L334.47,471.803L334.094,423.236L352.202,423.097C367.466,422.979 378.092,433.373 378.199,447.111C378.305,460.848 367.842,471.545 352.579,471.663Z" style="fill:rgb(64,43,86);fill-rule:nonzero;"/>
            </g>
            <g transform="matrix(2.50105,0,0,6.39714,3383.21,-1278.74)">
                <path d="M417.474,430.223L389.999,430.436L390.097,443.063L414.449,442.875L414.508,450.507L390.156,450.695L390.257,463.738L418.078,463.522L418.138,471.154L381.782,471.436L381.406,422.87L417.414,422.591L417.474,430.223Z" style="fill:rgb(64,43,86);fill-rule:nonzero;"/>
            </g>
        </g>
    </g>
</svg>
