<?xml version="1.0" encoding="UTF-8" standalone="no"?>
<!DOCTYPE svg PUBLIC "-//W3C//DTD SVG 1.1//EN" "http://www.w3.org/Graphics/SVG/1.1/DTD/svg11.dtd">
<svg width="100%" height="100%" viewBox="0 0 1190 1190" version="1.1" xmlns="http://www.w3.org/2000/svg" xmlns:xlink="http://www.w3.org/1999/xlink" xml:space="preserve" style="fill-rule:evenodd;clip-rule:evenodd;stroke-linejoin:round;stroke-miterlimit:1.41421;">
    <g id="Artboard3" transform="matrix(0.642926,0,0,0.642926,364.312,-2091.54)">
        <rect x="-566.646" y="3253.15" width="1849.86" height="1849.86" style="fill:none;"/>
        <g transform="matrix(6.48079,0,0,6.48079,-3351.36,1457.96)">
            <path d="M467.316,474.509L448.505,474.509L446.514,366.798L467.316,390.859L467.316,474.509Z" style="fill:rgb(108,199,185);fill-rule:nonzero;"/>
        </g>
        <g transform="matrix(6.48079,0,0,6.48079,-3351.36,1457.96)">
            <path d="M699.221,463.828L699.221,367.732L679.981,389.652L679.981,463.828L699.221,463.828Z" style="fill:rgb(108,199,185);fill-rule:nonzero;"/>
        </g>
        <g transform="matrix(6.48079,0,0,6.48079,-3351.36,1457.96)">
            <path d="M562.195,329.062L551.597,329.062C553.353,331.273 554.734,333.831 555.63,336.616L562.195,329.062Z" style="fill:rgb(65,190,173);fill-rule:nonzero;"/>
        </g>
        <g transform="matrix(6.48079,0,0,6.48079,-3351.36,1457.96)">
            <path d="M529.893,366.284C527.207,365.136 524.741,363.326 522.69,360.962C520.763,358.74 519.274,356.144 518.265,353.247C517.291,350.451 516.806,347.5 516.825,344.478C516.86,338.7 518.737,333.287 522.101,329.062L469.136,329.062C469.232,329.189 469.306,329.328 469.41,329.449L515.629,382.727L529.893,366.284Z" style="fill:rgb(108,199,185);fill-rule:nonzero;"/>
        </g>
        <g transform="matrix(6.48079,0,0,6.48079,-3351.36,1457.96)">
            <path d="M606.147,368.347C606.524,366.008 606.825,364.223 607.072,363.166C607.077,363.145 607.081,363.126 607.085,363.106L627.419,386.545L677.043,329.342C677.119,329.255 677.171,329.153 677.241,329.062L577.553,329.062L593.607,347.569C593.129,347.758 590.843,348.299 589.053,348.651C585.802,349.292 582.626,350.863 580.137,353.804C574.403,360.582 574.397,371.511 580.123,378.298C580.173,378.356 580.224,378.415 580.275,378.474C583.061,381.685 586.655,383.392 590.302,383.596C594.444,383.828 598.652,382.121 601.816,378.475C604.284,375.629 605.555,372.019 606.147,368.347Z" style="fill:rgb(235,27,118);fill-rule:nonzero;"/>
        </g>
        <g transform="matrix(6.48079,0,0,6.48079,-3351.36,1457.96)">
            <path d="M609.823,374.081C608.827,377.178 607.258,380.02 605.207,382.384C601.424,386.745 596.394,389.146 591.046,389.146C585.696,389.146 580.666,386.744 576.884,382.383C576.818,382.307 576.751,382.229 576.685,382.151C573.039,377.83 571.033,372.11 571.036,366.044C571.04,359.977 573.053,354.26 576.703,349.944C578.792,347.475 581.32,345.594 584.086,344.412L570.77,329.063L568.962,329.063L552.893,347.591C552.794,347.173 552.679,346.596 552.557,345.934C552.396,344.993 552.217,343.851 552.014,342.523C551.452,338.845 550.21,335.225 547.765,332.36C544.631,328.688 540.437,326.947 536.293,327.145C534.126,327.248 531.977,327.896 529.996,329.063L529.832,329.063C528.54,329.832 527.326,330.825 526.236,332.048C524.218,334.31 522.864,337.053 522.168,339.961C521.051,344.638 521.65,349.738 523.948,353.959C523.99,354.036 524.029,354.114 524.07,354.19C524.281,354.562 524.503,354.926 524.74,355.283C524.905,355.535 525.084,355.779 525.263,356.023C525.325,356.107 525.387,356.191 525.451,356.274C525.598,356.466 525.732,356.667 525.887,356.853C528.351,359.814 531.515,361.411 534.761,362.079C536.548,362.445 538.829,363.004 539.305,363.198L539.377,363.117C539.388,363.121 539.402,363.124 539.413,363.128L519.08,386.567L568.704,443.771C571.201,446.65 575.25,446.649 577.747,443.771L624.013,390.438L609.823,374.081Z" style="fill:rgb(64,43,86);fill-rule:nonzero;"/>
        </g>
        <g transform="matrix(6.48079,0,0,6.48079,-3351.36,1457.96)">
            <path d="M572.315,512.312L446.514,366.798L445.591,335.024L572.718,481.123L698.298,334.867L699.221,367.732L572.315,512.312Z" style="fill:rgb(64,43,86);fill-rule:nonzero;"/>
        </g>
    </g>
</svg>
